<svg width="139" height="25" fill="none" xmlns="http://www.w3.org/2000/svg"><g clip-path="url(#clip0_307_368)"><path d="M119.457 20.256h2.6v-2.39l-2.6 2.39zm1.781-2.694l-6.564.02c.025-.92 1.521-1.693 3.28-2.697 1.931-1.102 3.994-2.528 3.994-4.93 0-2.902-2.408-4.201-5.388-4.201a8.854 8.854 0 00-5.084 1.504v2.926c1.563-1.146 3.294-1.692 4.78-1.692 1.485 0 2.448.541 2.448 1.585 0 1.36-1.326 1.926-2.864 2.78-2.175 1.236-4.866 2.572-4.866 5.997v1.402h6.412l3.852-2.694z" fill="#fff"/><path d="M81.589 5.845L71.096 15.49l-.573-1.902-5.069 3.546-4.156 2.908c2.003 2.466 4.923 4.087 8.145 4.522 3.222.434 6.493-.353 9.123-2.194 2.63-1.842 4.414-4.594 4.975-7.677.562-3.082-.144-6.254-1.967-8.846l.015-.002zm-1.865 6.68l-3.934 2.64 3.987-3.73 1.863 2.507-1.916-1.417zM67.41 14.091l-1.83-1.283-4.886 3.506 4.904-4.876 1.977 2.492 4.088-3.98.704 2.346 9.221-6.451a12.333 12.333 0 00-3.571-3.367A12.84 12.84 0 0073.363.721a13.03 13.03 0 00-4.998.131 12.784 12.784 0 00-4.548 1.999 12.256 12.256 0 00-3.376 3.548 11.773 11.773 0 00-1.666 4.535 11.624 11.624 0 00.306 4.801 11.895 11.895 0 002.232 4.305l6.098-5.95z" fill="#FB0"/><path d="M94.449 6.285l1.039 3.452 5.862-4.103h-6.901v.658-.007zm9.6 6.242c1.344-.44 2.307-1.488 2.307-3.194 0-1.968-1.247-3.121-3.341-3.529l-2.61 2.397h.405c1.437 0 2.307.522 2.307 1.673 0 1.15-.887 1.672-2.129 1.672h-3.282v-.863l-3.26 3v6.582h6.539c2.649 0 5.971-.775 5.971-4.096 0-2.16-1.411-3.226-2.909-3.643h.002zm-3.107 5.183h-3.26v-3.762h3.432c1.303 0 2.586.334 2.586 1.877 0 1.593-1.303 1.885-2.758 1.885zM126.49 6.285l1.039 3.452 5.875-4.1h-6.919v.658l.005-.01zm9.6 6.242c1.344-.44 2.307-1.488 2.307-3.194 0-1.968-1.247-3.121-3.341-3.529l-2.61 2.397h.405c1.437 0 2.307.522 2.307 1.673 0 1.15-.887 1.672-2.129 1.672h-3.283v-.863l-3.259 3v6.582h6.539c2.654 0 5.976-.775 5.976-4.096 0-2.16-1.411-3.226-2.909-3.643h-.003zm-3.107 5.183h-3.259v-3.762h3.426c1.303 0 2.585.334 2.585 1.877.006 1.593-1.297 1.885-2.752 1.885z" fill="#fff"/></g><path d="M1.63 10.8c0 .648.144 1.22.432 1.716.296.496.68.884 1.152 1.164.472.28.984.42 1.536.42.4 0 .764-.052 1.092-.156.336-.104.64-.248.912-.432.272-.192.504-.412.696-.66v1.344a3.582 3.582 0 01-1.152.696c-.416.152-.932.228-1.548.228a4.326 4.326 0 01-1.644-.312 4.212 4.212 0 01-1.332-.9 4.248 4.248 0 01-.9-1.38A4.52 4.52 0 01.55 10.8c0-.624.108-1.2.324-1.728.216-.528.516-.984.9-1.368a3.963 3.963 0 011.332-.9A4.186 4.186 0 014.75 6.48c.616 0 1.132.076 1.548.228.416.152.8.384 1.152.696v1.344a2.993 2.993 0 00-.696-.648 3.22 3.22 0 00-.912-.444A3.601 3.601 0 004.75 7.5c-.552 0-1.064.14-1.536.42-.472.28-.856.668-1.152 1.164-.288.488-.432 1.06-.432 1.716zm10.38.336l-1.62 3.504H9.31l2.7-5.58 2.7 5.58h-1.08l-1.62-3.504zM14.47 15H9.61v1.08H8.59V14.1h6.84v1.98h-.96V15zm2.535-2.52v-.816h3.684a1.87 1.87 0 00-.24-.756 1.234 1.234 0 00-.516-.516c-.216-.128-.484-.192-.804-.192-.32 0-.612.068-.876.204a1.605 1.605 0 00-.636.588 1.666 1.666 0 00-.228.888l-.024.36c0 .424.072.784.216 1.08.144.296.348.52.612.672.264.152.576.228.936.228.272 0 .512-.04.72-.12.216-.088.408-.204.576-.348a2.31 2.31 0 00.432-.528l.78.492c-.184.28-.388.528-.612.744a2.444 2.444 0 01-.816.492c-.32.112-.72.168-1.2.168-.496 0-.944-.124-1.344-.372a2.681 2.681 0 01-.936-1.02 3.233 3.233 0 01-.336-1.488 3.615 3.615 0 01.048-.588c.08-.456.24-.856.48-1.2a2.49 2.49 0 01.924-.804 2.83 2.83 0 011.284-.288c.52 0 .976.116 1.368.348.392.232.696.56.912.984.216.416.324.916.324 1.5v.144a.875.875 0 01-.012.144h-4.716zm10.88-3V15h-.96v-4.62h-2.82v2.7c0 .432-.069.792-.204 1.08-.128.28-.328.492-.6.636-.272.136-.616.204-1.032.204v-.876a.88.88 0 00.612-.228c.175-.152.264-.424.264-.816v-3.6h4.74zm2.287 3.9c0 .192.052.356.156.492.104.128.244.228.42.3.176.064.372.096.588.096.32 0 .604-.048.852-.144.248-.096.44-.248.576-.456.144-.208.216-.484.216-.828l.192.6c0 .352-.096.656-.288.912-.184.248-.432.44-.744.576-.312.128-.66.192-1.044.192-.344 0-.66-.064-.948-.192a1.664 1.664 0 01-.696-.564c-.168-.256-.252-.572-.252-.948 0-.392.096-.724.288-.996.192-.272.464-.48.816-.624.352-.152.768-.228 1.248-.228.352 0 .652.048.9.144.256.088.46.192.612.312.152.112.256.204.312.276v.564A2.997 2.997 0 0031.6 12.3c-.32 0-.588.044-.804.132a1.005 1.005 0 00-.468.372c-.104.16-.156.352-.156.576zm0-2.604l-.468-.732c.208-.152.488-.304.84-.456.352-.152.776-.228 1.272-.228.424 0 .792.068 1.104.204.32.128.568.316.744.564.184.248.276.552.276.912V15h-.96v-3.96a.67.67 0 00-.36-.624 1.493 1.493 0 00-.804-.216c-.264 0-.504.036-.72.108a2.442 2.442 0 00-.564.24 4.276 4.276 0 00-.36.228zm5.956 1.764v-.9h4.08v.9h-4.08zm3.456-3.06h.96V15h-.96V9.48zm-4.02 0h.96V15h-.96V9.48zm6.305 2.76c0-.56.124-1.056.372-1.488.256-.432.6-.772 1.032-1.02a2.864 2.864 0 011.452-.372c.544 0 1.028.124 1.452.372.432.248.772.588 1.02 1.02.256.432.384.928.384 1.488 0 .552-.128 1.048-.384 1.488a2.714 2.714 0 01-1.02 1.02 2.822 2.822 0 01-1.452.372c-.536 0-1.02-.124-1.452-.372a2.804 2.804 0 01-1.032-1.02 2.977 2.977 0 01-.372-1.488zm.972 0c0 .384.08.724.24 1.02.168.296.392.532.672.708.288.168.612.252.972.252s.68-.084.96-.252c.288-.176.512-.412.672-.708a2.03 2.03 0 00.252-1.02 2.03 2.03 0 00-.252-1.02 1.738 1.738 0 00-.672-.708 1.83 1.83 0 00-.96-.252c-.36 0-.684.084-.972.252-.28.168-.504.404-.672.708-.16.296-.24.636-.24 1.02z" fill="#fff"/><defs><clipPath id="clip0_307_368"><path fill="#fff" transform="translate(58)" d="M0 0h81v25H0z"/></clipPath></defs></svg>