<svg width="24" height="24" fill="none" xmlns="http://www.w3.org/2000/svg"><path d="M13 16a1 1 0 11-2 0 1 1 0 012 0zm-.25-9a.75.75 0 00-1.5 0h1.5zm-1.5 6a.75.75 0 001.5 0h-1.5zm0-6v6h1.5V7h-1.5zm10 5A9.25 9.25 0 0112 21.25v1.5c5.937 0 10.75-4.813 10.75-10.75h-1.5zM12 21.25A9.25 9.25 0 012.75 12h-1.5c0 5.937 4.813 10.75 10.75 10.75v-1.5zM2.75 12A9.25 9.25 0 0112 2.75v-1.5C6.063 1.25 1.25 6.063 1.25 12h1.5zM12 2.75A9.25 9.25 0 0121.25 12h1.5c0-5.937-4.813-10.75-10.75-10.75v1.5z" fill="#8FA8CC"/></svg>