<svg width="23" height="20" fill="none" xmlns="http://www.w3.org/2000/svg"><path d="M4.929 5.929l.707-.707-.707.707zM3 4l-.707.707L3 4zm8 14a1 1 0 100 2v-2zm10.045-1.061l-.809-.588.81.588zm-1.106 1.106l-.588-.809.588.81zm0-16.09l.588-.81-.588.81zm1.106 1.106l-.809.588.81-.588zM4.061 1.955l-.588-.81.588.81zM1 10a1 1 0 102 0H1zm1.955-6.939l-.81-.588.81.588zM1 16a1 1 0 100 2v-2zm6 2a1 1 0 100-2v2zm-6-5a1 1 0 100 2v-2zm3 2a1 1 0 100-2v2zM2.621 3.621l-.9-.434.9.434zm3.015 1.6L3.828 3.415 2.414 4.828l1.808 1.808 1.414-1.414zm14.536-1.807l-1.808 1.808 1.414 1.414 1.808-1.808-1.414-1.414zM4.222 6.636c1.646 1.647 2.951 2.954 4.11 3.838 1.18.901 2.326 1.455 3.668 1.455v-2c-.729 0-1.452-.28-2.456-1.045C8.518 8.1 7.323 6.908 5.636 5.222L4.222 6.636zm14.142-1.414c-1.687 1.686-2.882 2.879-3.908 3.662-1.004.765-1.727 1.045-2.456 1.045v2c1.342 0 2.488-.554 3.669-1.455 1.158-.884 2.462-2.191 4.11-3.838l-1.415-1.414zm-12.728 0l-1.929-1.93-1.414 1.415 1.929 1.929 1.414-1.414zm14.657-1.93l-1.929 1.93 1.414 1.414 1.93-1.929-1.415-1.414zM11 2h2V0h-2v2zm2 16h-2v2h2v-2zm8-8c0 1.897-.001 3.24-.113 4.275-.11 1.017-.318 1.618-.65 2.076l1.617 1.176c.622-.856.892-1.85 1.02-3.037.127-1.168.126-2.637.126-4.49h-2zm-8 10c1.853 0 3.322.001 4.49-.125 1.187-.129 2.18-.399 3.037-1.02l-1.176-1.619c-.458.333-1.06.54-2.076.65C16.24 18 14.897 18 13 18v2zm7.236-3.649c-.247.34-.545.638-.885.885l1.176 1.618a6 6 0 001.327-1.327l-1.618-1.176zM13 2c1.897 0 3.24.001 4.275.114 1.017.11 1.618.317 2.076.65l1.176-1.618C19.67.524 18.677.254 17.49.126 16.323-.002 14.854 0 13 0v2zm6.351.764a4 4 0 01.885.885l1.618-1.176a6 6 0 00-1.327-1.327L19.35 2.764zM11 0C9.147 0 7.678-.001 6.51.125c-1.187.129-2.18.399-3.037 1.02l1.177 1.62c.458-.333 1.06-.54 2.076-.65C7.76 2 9.103 2 11 2V0zM3.473 1.146a6 6 0 00-1.327 1.327L3.764 3.65a4 4 0 01.885-.885L3.473 1.146zM1 18h6v-2H1v2zm0-3h3v-2H1v2zm2-5c0-1.639 0-2.868.075-3.85.074-.978.216-1.616.447-2.095L1.72 3.187c-.39.81-.558 1.737-.64 2.813C1 7.074 1 8.39 1 10h2zm.522-5.945c.07-.146.15-.28.242-.406L2.146 2.473a4.623 4.623 0 00-.426.714l1.802.868zm.185-.762l-.379-.38-1.414 1.415.379.38 1.414-1.415zM23 10c0-1.61 0-2.926-.08-4-.082-1.076-.25-2.003-.64-2.813l-1.802.868c.231.48.373 1.117.447 2.096C21 7.132 21 8.36 21 10h2zm-.72-6.813a4.62 4.62 0 00-.426-.714L20.236 3.65c.092.126.172.26.242.406l1.802-.868zm-.573 1.52l.38-.379-1.415-1.414-.38.379 1.415 1.414z" fill="#00148B"/></svg>