<svg width="120" height="74" fill="none" xmlns="http://www.w3.org/2000/svg"><path d="M79.68 63.565a22.03 22.03 0 012.116-3.002 18.948 18.948 0 013.26-3.08c1.197-.89 2.8-1.934 4.8-3.137 1.524-.92 3.283-1.932 5.28-3.041l5.858-3.35c7.487-4.403 12.416-8.859 14.786-13.36 2.367-4.5 3.55-8.505 3.55-12.02 0-6.851-1.872-13.139-7.568-17.374-8.583-6.381-21.22-6.602-30.513-2.25-4.652 2.176-8.274 5.194-11.642 8.703l4.555 9.598c4.038-3.447 8.186-7.078 11.7-8.654 4.826-2.17 10.759-3.058 15.769-.983 4.535 1.874 7.331 6.054 7.331 10.96 0 2.108-.848 4.598-2.545 7.468-1.697 2.873-5.296 5.905-10.8 9.099-.96.574-2.628 1.53-4.994 2.87a314.038 314.038 0 00-5.157 3.08c-2.337 1.427-4.252 2.65-5.738 3.67a32.015 32.015 0 00-6.58 6.035c-1.922 2.332-3.55 5.25-4.9 8.765v10.435h51.749V63.562H79.673l.006.003z" fill="#93A7CB"/><path d="M41.816.603H30.18l.719 1.605L65.764 74h10.86L41.815.603zm17.049 0H47.23l.719 1.605L82.813 74h10.86L58.864.603zm-7.572 52.219H39.076c-4.656 0-8.535.373-11.636 1.113-2.182.522-3.95 1.164-5.303 1.922a9.225 9.225 0 00-1.486 1.025l.97-2.091L36.574 22.52l-5.79-11.923-15.313 31.538L0 74h11.44l1.841-3.385c.582-1.096 1.795-2.192 3.635-3.288 1.843-1.096 4.314-2.014 7.419-2.757a33.042 33.042 0 011.846-.385c2.666-.484 5.67-.727 9.013-.727h21.265l-5.166-10.636z" fill="#000B8C"/></svg>