<svg width="56" height="35" fill="none" xmlns="http://www.w3.org/2000/svg"><path d="M55.24 26.422H32.313v-8.789a15.842 15.842 0 00-1.331-6.37l1.68-.485a.758.758 0 00.483-1.042A18.86 18.86 0 0024.43.627a.758.758 0 00-.959.238l-1.36 1.914a15.8 15.8 0 00-5.687-1.055C7.665 1.724.538 8.861.538 17.634v13.948a.76.76 0 00.76.76h51.386v1.235a.76.76 0 00.76.76h1.797a.759.759 0 00.759-.76v-6.399a.761.761 0 00-.76-.756zm-53.183 4.4v-13.19c0-7.93 6.445-14.388 14.368-14.388a14.284 14.284 0 016.211 1.417 14.475 14.475 0 016.87 7.023 14.33 14.33 0 011.285 5.946v13.19H2.057v.002zm29.321-21.25l-1.085.312a16.01 16.01 0 00-6.762-6.472l.795-1.118a17.356 17.356 0 017.052 7.277zm.934 18.376h1.47v2.031H35.3v-2.03h1.657v1.061h1.518v-1.062h1.658v1.063h1.518v-1.063h1.658v1.063h1.518v-1.063h1.658v1.063h1.518v-1.063h1.657v2.031h1.518v-2.03h1.506v2.878H32.312v-2.879zm22.17 4.869h-.28v-4.879h.28v4.879z" fill="#fff"/><path d="M16.425 6.757c-2.044 0-4.042.607-5.742 1.744a10.363 10.363 0 00-1.566 15.924 10.33 10.33 0 0011.263 2.243 10.338 10.338 0 004.638-3.812 10.36 10.36 0 001.742-5.75 10.368 10.368 0 00-3.03-7.314 10.34 10.34 0 00-7.305-3.035zm0 19.178a8.807 8.807 0 01-4.898-1.488 8.84 8.84 0 01-1.336-13.584 8.813 8.813 0 019.608-1.913 8.82 8.82 0 013.957 3.252 8.837 8.837 0 011.486 4.905 8.845 8.845 0 01-2.585 6.24 8.82 8.82 0 01-6.232 2.588z" fill="#4D8FF0"/><path d="M16.425 10.233a6.857 6.857 0 00-6.342 4.243 6.883 6.883 0 001.488 7.49 6.861 6.861 0 007.48 1.49 6.88 6.88 0 004.237-6.35 6.887 6.887 0 00-2.012-4.857 6.868 6.868 0 00-4.851-2.016zm0 12.226a5.34 5.34 0 01-4.939-3.304 5.36 5.36 0 011.16-5.834 5.344 5.344 0 015.825-1.16 5.347 5.347 0 013.3 4.946 5.362 5.362 0 01-1.568 3.783 5.347 5.347 0 01-3.778 1.57zM6.02 23.623a3.251 3.251 0 00-3.006 2.011 3.263 3.263 0 00.705 3.552 3.253 3.253 0 005.556-2.305c0-.864-.343-1.693-.954-2.304a3.252 3.252 0 00-2.3-.954zm0 4.996a1.734 1.734 0 01-1.702-2.077 1.738 1.738 0 012.367-1.266 1.736 1.736 0 01.94 2.271 1.737 1.737 0 01-1.605 1.075v-.003z" fill="#4D8FF0"/></svg>