<svg width="55" height="44" fill="none" xmlns="http://www.w3.org/2000/svg"><path d="M44.27 25.563v-4.024m3.58 5.137l2.08-3.595m.268 5.942l3.595-2.078m-2.817 5.325H55m-13.547-5.594l-2.08-3.595" stroke="#4D8EF0" stroke-width="2" stroke-miterlimit="10"/><path d="M16.638 17.38L4.728 29.293a1.743 1.743 0 00-2.469 0l-.617.617a1.743 1.743 0 000 2.468l3.702 3.702a1.77 1.77 0 002.468 0l.617-.617a1.743 1.743 0 000-2.468l11.898-11.911" stroke="#fff" stroke-width="2" stroke-miterlimit="10"/><path d="M13.956 11.506l1.85 1.985h2.469l5.875 5.902v2.468l1.998 1.85a1.824 1.824 0 002.535 0l7.445-7.403a1.65 1.65 0 000-2.388l-1.811-1.77h-2.468L25.49 5.832V3.364l-1.757-1.85a1.677 1.677 0 00-2.415 0L13.93 8.97a1.837 1.837 0 00.027 2.535z" stroke="#4D8EF0" stroke-width="2" stroke-miterlimit="10"/><path d="M4.7 29.265l1.852 1.851" stroke="#fff" stroke-width="2" stroke-miterlimit="10"/><path d="M25.679 5.832L23.21 8.3m8.639 3.702L29.38 14.47m-9.254-3.085l-1.851 1.851m8.021 4.306l-1.851 1.85" stroke="#4D8EF0" stroke-width="2" stroke-miterlimit="10"/><path d="M46.496 36.293h-.885v-2.32a3.005 3.005 0 00-2.602-3.045H28.174a3.07 3.07 0 00-2.683 3.045v2.32h-.805c-1.448 0-3.219.59-3.219 2.04V43h28.168v-4.668c0-1.448-1.704-2.039-3.139-2.039z" stroke="#fff" stroke-width="2" stroke-miterlimit="10"/><path d="M25.491 36.293v-2.32a3.072 3.072 0 012.683-3.045h14.835a3.004 3.004 0 012.602 3.045v2.32m-10.731 0H24.686c-1.448 0-3.219.59-3.219 2.04V43h28.168v-4.668c0-1.448-1.704-2.039-3.139-2.039h-4.91" stroke="#fff" stroke-width="2" stroke-miterlimit="10"/></svg>