<svg width="46" height="43" fill="none" xmlns="http://www.w3.org/2000/svg"><path d="M13 9H4a3 3 0 00-3 3m37 3V9h-9" stroke="#fff" stroke-width="2" stroke-linecap="round" stroke-linejoin="round"/><path d="M35 15L21 1 7 15" stroke="#4C8EEF" stroke-width="2" stroke-linecap="round" stroke-linejoin="round"/><path d="M28 15l-4.87-4.9a2.64 2.64 0 01-4.24 0L14 15" stroke="#4C8EEF" stroke-width="2" stroke-linecap="round" stroke-linejoin="round"/><path d="M43 34v8H4a3 3 0 01-3-3V12a3 3 0 003 3h39v7" stroke="#fff" stroke-width="2" stroke-linecap="round" stroke-linejoin="round"/><path d="M31 24a5 5 0 100 10h11a3 3 0 003-3v-8a1 1 0 00-1-1h-1a2.17 2.17 0 01-2 2H31z" stroke="#4989EB" stroke-width="2" stroke-linecap="round" stroke-linejoin="round"/><path d="M30 29h2" stroke="#4989EB" stroke-width="2" stroke-miterlimit="10"/></svg>