<svg width="45" height="44" fill="none" xmlns="http://www.w3.org/2000/svg"><path d="M7.173 7.192a21 21 0 0129.7-.08l2.48 2.45 2.67-2.67h1v10h-10v-1l2.11-2.11-2.5-2.5a14.8 14.8 0 00-10.61-4.32 15.08 15.08 0 00-15 15.93h-6a20.65 20.65 0 016.15-15.7z" stroke="#4C8EEF" stroke-width="2" stroke-miterlimit="10"/><path d="M11.023 26.892v1l-2.09 2.09 2.48 2.44a15 15 0 0021.22-.07 15.31 15.31 0 004.34-11.46h6.05a20.65 20.65 0 01-6.11 15.7 21 21 0 01-29.7.08l-2.48-2.45-2.71 2.67h-1v-10h10z" stroke="#fff" stroke-width="2" stroke-miterlimit="10"/><path d="M26.025 25.892l-4-4v-9" stroke="#4C8EEF" stroke-width="2" stroke-miterlimit="10"/></svg>