<svg width="40" height="40" fill="none" xmlns="http://www.w3.org/2000/svg"><path d="M39.5.5H.5v32.912L5.827 39.5H39.5V.5z" fill="url(#paint0_linear_13_1080)" stroke="#fff"/><path fill-rule="evenodd" clip-rule="evenodd" d="M15.12 11.55c-.371-.826-.762-.842-1.115-.857-.288-.012-.619-.011-.949-.011-.33 0-.867.124-1.32.62-.455.495-1.734 1.693-1.734 4.13s1.775 4.792 2.022 5.122c.248.33 3.427 5.49 8.46 7.476 4.184 1.65 5.036 1.322 5.944 1.24.908-.084 2.93-1.199 3.343-2.355.413-1.157.413-2.148.289-2.355-.124-.206-.454-.33-.95-.578-.495-.248-2.93-1.446-3.384-1.611-.454-.165-.784-.248-1.114.248-.33.495-1.28 1.61-1.568 1.941-.29.331-.578.372-1.073.125-.496-.249-2.09-.771-3.983-2.458-1.473-1.313-2.466-2.934-2.756-3.43-.288-.495-.03-.764.218-1.01.222-.223.495-.579.743-.868.247-.29.33-.496.495-.826.165-.33.082-.62-.041-.867-.124-.248-1.087-2.698-1.527-3.677z" fill="#fff"/><defs><linearGradient id="paint0_linear_13_1080" x1="40" y1="20.002" x2="0" y2="20.002" gradientUnits="userSpaceOnUse"><stop stop-color="#20B038"/><stop offset="1" stop-color="#60D66A"/></linearGradient></defs></svg>