<svg width="1560" height="1015" fill="none" xmlns="http://www.w3.org/2000/svg"><path d="M50 40h1460l50 48v817l-190 110H0V88l50-48z" fill="#000"/><path d="M50 40h1460l50 48v817l-190 110H0V88l50-48z" fill="url(#paint0_diamond_23_2738)"/><path d="M521.447 26L467.5 88 0 130l1560-1.5-469-51.25L1035.84 26l-27.67-26H549.12l-27.673 26z" fill="#000"/><path d="M521.447 26L467.5 88 0 130l1560-1.5-469-51.25L1035.84 26l-27.67-26H549.12l-27.673 26z" fill="url(#paint1_diamond_23_2738)"/><defs><radialGradient id="paint0_diamond_23_2738" cx="0" cy="0" r="1" gradientUnits="userSpaceOnUse" gradientTransform="matrix(751.49914 1141.99683 -1577.77637 1038.26696 312.5 -188.5)"><stop stop-color="#00148B"/><stop offset=".684" stop-color="#092444"/><stop offset="1"/></radialGradient><radialGradient id="paint1_diamond_23_2738" cx="0" cy="0" r="1" gradientUnits="userSpaceOnUse" gradientTransform="matrix(751.49914 1141.99683 -1577.77637 1038.26696 312.5 -188.5)"><stop stop-color="#00148B"/><stop offset=".684" stop-color="#092444"/><stop offset="1"/></radialGradient></defs></svg>