<svg width="27" height="47" fill="none" xmlns="http://www.w3.org/2000/svg"><path d="M15.727 47c-2.655 0-4.938-.595-5.705-1.018-1.098-.601-2.263-1.804-2.246-3.376 0-.44 0-1.263.683-1.801a2.406 2.406 0 011.387-.549c.216-.002.429.048.62.146.244.136.467.305.665.502.126.128.269.24.424.33.913.473 1.776.916 2.742 1.048.366.048.735.072 1.105.073a8.065 8.065 0 004.18-1.097c.608-.37.83-.704.996-1.484a1.092 1.092 0 00-.086-.869.332.332 0 00-.275-.11h-.096c-.578.047-1.157.062-1.736.047-2.489 0-7.092-.109-10.135-.185-1.553-.036-2.78-.066-3.11-.066a2.606 2.606 0 01-1.918-.8 2.582 2.582 0 01-.713-1.946c.063-1.4 1.553-2.379 2.847-2.379.27-.001.537.044.79.133.44-2.065.509-4.19.203-6.278-.27-1.61-.996-2.786-1.855-4.15l-.292-.473c-.093-.152-.19-.3-.282-.45a8.6 8.6 0 01-1.122-2.2c-.458-1.54-.388-2.944-.312-4.434.058-.554.182-1.1.368-1.625.385-1.266.501-1.897.106-2.069-.995-.436-2.273-1.523-2.75-2.752a2.61 2.61 0 010-2.049.661.661 0 01.537-.39c.55-.056 1.132-.707 1.6-1.229l.179-.198c.607-.66 1.795-1.23 2.203-1.408a1.26 1.26 0 00.299-.743v-.605c-.037-.64-.073-1.37.216-1.923a.661.661 0 01.735-.337.665.665 0 01.26.123c1.15.848 2.107 1.93 2.808 3.172.081.037.16.083.232.135 1.414 1.008 2.456 1.847 2.987 3.516a11.9 11.9 0 01.331 1.579c.143.852.292 1.731.664 2.293.664 1.054 1.367 1.54 2.565 2.178 1.59.842 4.563 2.524 6.598 4.295 8.27 7.21 3.09 15.433 1.659 17.383a8.644 8.644 0 011.407 3.225c.438 2.742-.176 4.903-1.779 6.248C21.19 46.544 17.98 47 15.727 47zm-5.87-5.412a1.09 1.09 0 00-.561.254c-.156.126-.19.377-.193.793 0 .992.796 1.788 1.56 2.204.524.288 2.611.853 5.064.853 2.03 0 4.915-.387 7.118-2.24 1.55-1.302 1.576-3.453 1.327-5.03a7.325 7.325 0 00-1.44-3.003.659.659 0 010-.859c.299-.35 7.221-8.624-1.191-15.959-2.008-1.751-5.104-3.47-6.345-4.127-1.344-.713-2.23-1.345-3.06-2.643-.508-.79-.664-1.804-.846-2.789a11.03 11.03 0 00-.292-1.397c-.402-1.26-1.181-1.904-2.416-2.782-.375-.024-.524-.304-.664-.555a8.126 8.126 0 00-1.59-2.062v.244c0 .265.027.516.017.744a2.553 2.553 0 01-.813 1.731.73.73 0 01-.176.106c-.371.158-1.433.66-1.858 1.13l-.17.188c-.53.595-1.167 1.322-1.99 1.576a1.42 1.42 0 00.103.74 4.279 4.279 0 002.047 2.02c1.543.66.996 2.47.63 3.66a6.485 6.485 0 00-.315 1.322c-.07 1.43-.132 2.67.263 3.994.231.665.556 1.294.965 1.867.1.155.2.307.292.463l.292.469c.886 1.42 1.723 2.762 2.035 4.626.487 2.9.04 6.955-.638 7.751a.806.806 0 01-.617.3.665.665 0 01-.458-.178.839.839 0 00-.587-.201c-.73 0-1.497.565-1.523 1.12a1.283 1.283 0 00.331.968 1.328 1.328 0 00.963.393c.332 0 1.516.03 3.14.07 3.039.072 7.632.181 10.104.181 1.112 0 1.463-.023 1.573-.036a1.665 1.665 0 011.566.582 2.307 2.307 0 01.355 1.982 3.177 3.177 0 01-1.596 2.343 9.428 9.428 0 01-4.868 1.301 9.66 9.66 0 01-1.284-.085c-1.192-.162-2.2-.681-3.173-1.183a3.318 3.318 0 01-.707-.526 2.152 2.152 0 00-.375-.32z" fill="#8FA8CC"/><path d="M3.156 5.973A.666.666 0 012.52 5.5a.658.658 0 01.052-.503c.332-.628.216-2.17-.126-2.974a.659.659 0 01.522-1.01.666.666 0 01.43.125c.697.378 1.34.847 1.912 1.394a.665.665 0 01-.41 1.16.67.67 0 01-.483-.169 15.856 15.856 0 00-.352-.313c.083.865 0 1.79-.331 2.418a.662.662 0 01-.578.344zm7.278 32.777a2.36 2.36 0 01-1.448-.483 2.342 2.342 0 01-.845-1.265c-.253-.962.136-2.171 1.573-2.7.697-.254 1.934-.185 3.408-.023a6.85 6.85 0 01-.365-1.2c-.405-1.945-.203-3.61.6-4.955.857-1.428 2.94-2.73 5.114-2.313a.665.665 0 01.54.513.659.659 0 01-.523.787.667.667 0 01-.262-.002c-1.507-.28-3.11.661-3.73 1.702-.621 1.04-.774 2.395-.438 4.004.136.607.35 1.194.633 1.748l.11.245a.658.658 0 01-.34.878.666.666 0 01-.344.05l-.242-.03c-1.082-.132-3.1-.376-3.7-.155-.86.33-.81.89-.75 1.124a1.048 1.048 0 001.238.743.665.665 0 01.754.807.661.661 0 01-.545.498 2.92 2.92 0 01-.438.027z" fill="#8FA8CC"/><path d="M9.488 35.465a.666.666 0 01-.634-.46.658.658 0 01.043-.504c.943-1.814 1.301-5.313.767-7.488a.658.658 0 01.478-.832.666.666 0 01.81.518c.607 2.472.209 6.325-.873 8.41a.66.66 0 01-.591.356z" fill="#8FA8CC"/></svg>