<svg width="47" height="41" fill="none" xmlns="http://www.w3.org/2000/svg"><path d="M46.218 22.731c.427 0 .782.355.782.783a.782.782 0 01-.782.774h-6.79a.774.774 0 01-.773-.774.78.78 0 01.774-.783h6.789zm-2.367-10.978a.788.788 0 01-.291 1.064l-5.879 3.396a.769.769 0 01-.391.11.794.794 0 01-.674-.392.776.776 0 01.291-1.056l5.879-3.404a.793.793 0 011.064.282h.001zm-.291 22.449c.373.218.5.691.292 1.064a.785.785 0 01-.674.383.759.759 0 01-.391-.1l-5.878-3.396a.788.788 0 01-.292-1.065.793.793 0 011.065-.282l5.878 3.396zm-6.041 4.396a.774.774 0 110 1.549H9.473a.774.774 0 110-1.549h1.829v-3.905c0-.428.346-.775.774-.775h2.039V21.22c0-5.171 4.213-9.386 9.382-9.386s9.382 4.215 9.382 9.386v12.7h2.039c.427 0 .774.345.774.774v3.905h1.829-.002zm-3.377 0v-3.131H12.849v3.131h21.293zM31.33 33.92v-12.7c0-4.315-3.512-7.83-7.834-7.83-4.322 0-7.835 3.515-7.835 7.83v12.7h7.062v-5.19c-2.402-.382-4.24-2.457-4.24-4.96a5.017 5.017 0 014.24-4.953v-.728a.774.774 0 111.548 0v.728c2.402.373 4.25 2.45 4.25 4.953s-1.848 4.578-4.25 4.96v5.19h7.061-.002zm-4.368-10.15a3.463 3.463 0 00-2.693-3.37v6.746a3.464 3.464 0 002.693-3.377zm-4.24 3.378V20.4c-1.538.355-2.694 1.73-2.694 3.369a3.48 3.48 0 002.694 3.377zM35.243 3.15c.373.219.5.692.291 1.065l-3.403 5.88a.754.754 0 01-1.056.283.764.764 0 01-.282-1.057l3.395-5.89a.785.785 0 011.056-.282l-.001.001zM24.269.774v6.8a.774.774 0 11-1.548 0v-6.8a.774.774 0 111.548 0zm-8.062 8.548a.781.781 0 01-.674 1.166.776.776 0 01-.674-.391l-3.394-5.88a.776.776 0 01.282-1.066.78.78 0 011.056.282l3.403 5.89zm-6.116 5.553a.772.772 0 01.282 1.056.783.783 0 01-.673.392.736.736 0 01-.383-.11L3.43 12.817a.776.776 0 01.774-1.346l5.887 3.404zm.282 16.213a.793.793 0 01-.282 1.065l-5.887 3.396a.726.726 0 01-.382.1.777.777 0 01-.392-1.447l5.887-3.396a.785.785 0 011.056.282zm-2.802-8.357c.427 0 .774.355.774.783a.774.774 0 01-.774.774H.774A.774.774 0 010 23.514a.78.78 0 01.774-.783H7.57z" fill="#8FA8CC"/></svg>