<svg width="31" height="33" fill="none" xmlns="http://www.w3.org/2000/svg"><path d="M16.832 32.952A16.19 16.19 0 015.36 28.245C2.273 25.196.6 21.185.6 16.905c0-2.888.76-5.669 2.273-8.13C4.28 6.37 6.332 4.39 8.772 3a.664.664 0 01.813.107.641.641 0 01.107.803c-1.3 2.192-1.947 4.76-1.947 7.327-.054 8.077 6.654 14.709 14.826 14.709 2.6 0 5.14-.695 7.413-1.926a.664.664 0 01.813.107.641.641 0 01.107.803c-1.406 2.407-3.407 4.439-5.846 5.83-2.487 1.444-5.3 2.193-8.226 2.193zM7.42 5.513c-3.407 2.781-5.467 6.953-5.467 11.393 0 8.13 6.654 14.708 14.88 14.708 4.493 0 8.713-2.032 11.526-5.402-1.84.696-3.786 1.017-5.733 1.017a16.19 16.19 0 01-11.473-4.707c-3.086-3.049-4.76-7.06-4.76-11.34-.054-1.925.326-3.85 1.027-5.669z" fill="#8FA8CC"/><path d="M18.891 13.59h-4.38a.697.697 0 01-.647-.428.662.662 0 01.16-.75l2.92-2.887h-2.433a.71.71 0 01-.7-.696c0-.374.325-.695.7-.695h4.06c.272 0 .54.16.647.428a.662.662 0 01-.16.749l-2.921 2.888h2.76c.38 0 .7.32.7.695-.053.375-.38.696-.7.696h-.006zm6.98 3.316h-2.92a.697.697 0 01-.647-.428.662.662 0 01.16-.749l1.567-1.551h-1.08a.71.71 0 01-.7-.695c0-.375.326-.696.7-.696h2.706c.273 0 .54.16.648.428a.662.662 0 01-.16.749l-1.568 1.604h1.3c.38 0 .7.321.7.696-.053.32-.326.642-.7.642h-.006zm1.787-10.698h-4.38a.697.697 0 01-.648-.428.662.662 0 01.16-.748l2.92-2.889h-2.433a.71.71 0 01-.7-.695c0-.374.326-.695.7-.695h4.06c.273 0 .54.16.647.428a.662.662 0 01-.16.748l-2.92 2.942h2.76c.379 0 .7.321.7.696 0 .32-.326.641-.7.641h-.006z" fill="#8FA8CC"/></svg>