<svg width="53" height="51" fill="none" xmlns="http://www.w3.org/2000/svg"><path d="M50.5 49.52H1.733M1 9.993L26.14 1l25.094 8.993m-40.037 1.342c0 2.626-2.234 4.756-4.996 4.756-2.762 0-4.996-2.13-4.996-4.756m19.951 0c0 2.626-2.234 4.756-4.998 4.756-2.764 0-4.985-2.13-4.985-4.756m19.95 0c0 2.626-2.233 4.756-4.995 4.756s-5.004-2.13-5.004-4.756m19.951 0c0 2.626-2.234 4.756-4.996 4.756-2.762 0-5.004-2.13-5.004-4.756m19.95 0c0 2.626-2.235 4.756-4.997 4.756s-4.995-2.13-4.995-4.756M21.465 29.2c-.625 2.913.467 5.196 4.886 5.133 4.42-.063 4.021-3.32 3.692-5.947m-3.927-12.295v12.592m15.203-8.367c-.34.172-4.123 1.362-5.715 2.374-3.976 2.53-5.73 5.607-6.355 5.808-5.121 1.641-9.405-2.03-11.925 1.422-6.385-3.544-9.79 2.142-9.58 4.222l4.05 2.262c.246-2.713 4.874-5.11 4.902-2.593l-1.738 7.92c-.743 3.897 2.994 3.49 3.946.693 2.234-6.546 13.17-6.261 15.284-.05 1.158 3.405 4.531 2.146 3.829-.998l-1.607-7.18c-.74-3.31.38-4.246 1.934-4.232 2.552.025 4.173 3.475 5.572.636 1.219-2.49-3.026-6.263-4.874-8.777M26.11 37.615v11.188" stroke="#fff" stroke-width="2" stroke-linecap="round" stroke-linejoin="round"/></svg>