<svg width="48" height="47" fill="none" xmlns="http://www.w3.org/2000/svg"><path d="M19.157 23.79h9.525a1.399 1.399 0 011.395 1.397v9.525a1.397 1.397 0 01-1.395 1.395h-9.525a1.397 1.397 0 01-1.395-1.395v-9.525a1.4 1.4 0 011.395-1.397zm4.811 5.533l-.07 6.518m-5.791-6.714l11.631.07" stroke="#fff" stroke-width="2" stroke-linecap="round" stroke-linejoin="round"/><path d="M8.965 22.22v23.218h30.349V22.22" stroke="#fff" stroke-width="2" stroke-linecap="round" stroke-linejoin="round"/><path d="M8.965 14.24V1h6.331v7.55m31.577 12.753l-.212.225.212.182-3.404 3.827L23.936 8.135 4.404 25.537 1 21.71l.212-.182L1 21.303 23.733 1l.212.182.211-.182L46.89 21.303h-.017z" stroke="#fff" stroke-width="2" stroke-linecap="round" stroke-linejoin="round"/></svg>