<svg width="45" height="17" fill="none" xmlns="http://www.w3.org/2000/svg"><g clip-path="url(#clip0_105_289)"><path d="M0 8.507c12.446 0 12.446 4.25 24.892 4.25 12.447 0 12.447-5.835 24.893-5.835 12.446 0 12.446 4.305 24.892 4.305s12.446-2.72 24.887-2.72c12.44 0 12.446 2.72 24.892 2.72 12.447 0 12.447-6.12 24.893-6.12 12.446 0 12.446 6.12 24.892 6.12s12.446-2.72 24.893-2.72c12.446 0 12.446 4.25 24.898 4.25s12.446-4.25 24.898-4.25" stroke="#8FA8CC" stroke-width="1.5" stroke-miterlimit="10"/><path d="M248.924 11.227c-12.446 0-12.446-2.72-24.892-2.72-12.447 0-12.447 2.72-24.893 2.72-12.446 0-12.446-2.72-24.892-2.72s-12.446 2.72-24.887 2.72c-12.44 0-12.446-2.72-24.892-2.72s-12.446 4.25-24.893 4.25c-12.446 0-12.446-4.25-24.892-4.25s-12.446 2.72-24.893 2.72c-12.446 0-12.446-2.72-24.898-2.72-12.451 0-12.446 2.72-24.892 2.72" stroke="#8FA8CC" stroke-width="1.5" stroke-miterlimit="10"/><path d="M11.341 6.657c.433 3.21.558 5.855.285 5.903-.274.054-.843-2.51-1.276-5.72-.433-3.209-.285-5.902-.285-5.902s.843 2.51 1.276 5.72z" fill="#8FA8CC"/><path d="M10.937 11.206c-.433-3.21-.558-5.854-.285-5.902.273-.054.843 2.51 1.276 5.719.433 3.21.285 5.902.285 5.902s-.843-2.51-1.276-5.719z" fill="#8FA8CC"/><path d="M12.065 9.173c-1.111 1.693-2.125 2.965-2.273 2.829-.143-.136.638-1.619 1.748-3.318 1.111-1.7 2.273-2.83 2.273-2.83s-.638 1.62-1.748 3.32z" fill="#8FA8CC"/><path d="M10.037 10.989c1.11-1.693 2.13-2.965 2.272-2.829.143.136-.637 1.618-1.748 3.318-1.111 1.694-2.273 2.83-2.273 2.83s.638-1.62 1.749-3.32z" fill="#8FA8CC"/><path d="M11.774 11.145C10.601 9.513 9.758 8.072 9.9 7.93c.137-.143 1.202 1.067 2.381 2.7a20.491 20.491 0 011.88 3.216s-1.208-1.068-2.381-2.693l-.006-.007z" fill="#8FA8CC"/><path d="M10.68 8.412c1.174 1.631 2.017 3.073 1.88 3.216-.137.143-1.202-1.068-2.38-2.7-1.174-1.632-1.88-3.21-1.88-3.21s1.207 1.062 2.38 2.694zM37.566 6.82c-.433 3.21-1.008 5.767-1.281 5.712-.274-.054-.143-2.692.296-5.902.433-3.21 1.282-5.712 1.282-5.712s.142 2.693-.297 5.902z" fill="#8FA8CC"/><path d="M35.983 10.982c.433-3.21 1.008-5.766 1.282-5.712.273.054.142 2.7-.297 5.902-.433 3.21-1.281 5.712-1.281 5.712s-.143-2.7.296-5.902z" fill="#8FA8CC"/><path d="M37.595 9.48c-1.498 1.196-2.797 2.012-2.9 1.828-.102-.183 1.032-1.298 2.535-2.488a15.264 15.264 0 012.9-1.83s-1.031 1.3-2.535 2.49z" fill="#8FA8CC"/><path d="M35.185 10.438c1.498-1.197 2.797-2.013 2.9-1.83.102.184-1.031 1.3-2.535 2.49a15.696 15.696 0 01-2.9 1.829s1.032-1.299 2.535-2.489z" fill="#8FA8CC"/><path d="M36.797 11.234c-.683-1.993-1.105-3.672-.934-3.754.171-.082.866 1.462 1.55 3.454.689 1.993.94 3.754.94 3.754s-.866-1.462-1.55-3.454h-.005z" fill="#8FA8CC"/><path d="M36.478 8.235c.69 1.992 1.105 3.672.935 3.753-.171.082-.866-1.462-1.55-3.454a22.94 22.94 0 01-.934-3.754s.866 1.462 1.55 3.455z" fill="#8FA8CC"/></g><defs><clipPath id="clip0_105_289"><path fill="#fff" d="M0 0h45v17H0z"/></clipPath></defs></svg>