<svg width="45" height="45" fill="none" xmlns="http://www.w3.org/2000/svg"><path d="M1.106 24.32h20.7V9.417l7.05 3.86V9.133l7.565 4.143V9.133l7.568 4.143c.014 8.564.01 21.834.01 30.398H1.107V24.32z" stroke="#fff" stroke-width="2" stroke-linecap="round" stroke-linejoin="round"/><path d="M8.514 4.224l.553 20.097H3.621l.552-20.097m8.896 0l-.554 20.097h5.446l-.553-20.097M5.302 29.355h12.251v2.758H5.302v-2.758zm0 6.056h12.251v2.758H5.302v-2.758zm21.646 8.263V35.41H39.32v8.263M21.807 24.32v19.353m14.362-14.318h3.15v2.759h-3.15v-2.759zm0-5.867h3.15v2.751h-3.15v-2.758.007zm0-5.867h3.15v2.758h-3.15v-2.758zM3.157 1.121h6.37v2.757h-6.37V1.12zm8.892 0h6.372v2.757h-6.372V1.12z" stroke="#fff" stroke-width="2" stroke-linecap="round" stroke-linejoin="round"/></svg>