<svg width="45" height="43" fill="none" xmlns="http://www.w3.org/2000/svg"><path d="M1.974 10.13L22.655 1l20.68 9.13v31.166H37.1V13.187H8.21v28.11H1.975V10.128zm6.809 7.488h27.851M8.673 22.05h27.853" stroke="#fff" stroke-width="2" stroke-linecap="round" stroke-linejoin="round"/><path d="M12.235 36.22c-.416-1.365-1.325-3.501-.36-4.659.83-.993 1.568-.762 2.682-.762h16.37c1.081 0 1.687-.195 2.5.768.99 1.175-.022 3.297-.501 4.653-.118.385-.295.75-.525 1.081a1.1 1.1 0 01-.901.476H13.652a1.126 1.126 0 01-.91-.47 3.301 3.301 0 01-.51-1.082l.003-.005zm6.05 2.354v1.738a.991.991 0 01-.986.986h-2.313a.992.992 0 01-.986-.986v-1.738m17.307 0v1.738a.991.991 0 01-.986.986h-2.313a.99.99 0 01-.984-.986v-1.738m-12.54-4.37l2.73.954m13.612-.954l-2.732.954m2.503-5.05c-.741-1.826-1.457-2.818-2.393-3.35-1.637-.932-9.538-.914-11.188.033-.943.54-1.662 1.53-2.304 3.317" stroke="#fff" stroke-width="2" stroke-linecap="round" stroke-linejoin="round"/></svg>