<svg width="38" height="27" fill="none" xmlns="http://www.w3.org/2000/svg"><path d="M36 13.365s-7.547 11.678-16.933 11.678C9.68 25.043 2 13.365 2 13.365S9.547 1.679 18.933 1.679C28.32 1.68 36 13.365 36 13.365z" stroke="#8FA8CC" stroke-width="2" stroke-miterlimit="10"/><path d="M19.118 8.39c-.749 0-1.489.167-2.165.488a2.262 2.262 0 01-1.796 3.66 2.216 2.216 0 01-.99-.23 5.07 5.07 0 104.951-3.917z" stroke="#8FA8CC" stroke-width="2" stroke-miterlimit="10"/><path d="M24.174 21.591c2.668-1.478 4.435-4.715 4.435-8.13 0-3.415-1.767-6.652-4.435-8.13M13.826 5.33c-2.668 1.479-4.435 4.746-4.435 8.131s1.767 6.652 4.435 8.13" stroke="#8FA8CC" stroke-width="2" stroke-miterlimit="10"/></svg>