<svg width="49" height="42" fill="none" xmlns="http://www.w3.org/2000/svg"><path d="M1.96 40.763h45.968m-41.138 0V23.468m11.336 17.295V23.468m24.979 17.295V23.468m-31.678-7.242l2.28-14.01m-6.59-.608h35.659l5.144 11.684c.053.292.08.588.08.885 0 2.763-2.3 5.002-5.132 5.002a5.15 5.15 0 01-4.48-2.562 5.153 5.153 0 01-4.48 2.562 5.155 5.155 0 01-4.482-2.562 5.149 5.149 0 01-4.48 2.562 5.155 5.155 0 01-4.48-2.562 5.153 5.153 0 01-4.48 2.562 5.149 5.149 0 01-4.48-2.562 5.154 5.154 0 01-4.48 2.562c-2.836 0-5.133-2.24-5.133-5.002 0-.296.026-.593.08-.884L7.12 1.607h-.002zm13.238 14.618l.76-14.01m8.17 14.01l-.76-14.01m9.688 14.01l-2.279-14.01m-21.578 30.12v-3.264m13.132 5.588l10.366-10.245m-6.707 13.069l7.012-6.931" stroke="#fff" stroke-width="2" stroke-linecap="round" stroke-linejoin="round"/></svg>