<svg width="40" height="40" fill="none" xmlns="http://www.w3.org/2000/svg"><path d="M11.08 33.657l.602.357a16.456 16.456 0 008.385 2.296h.007c9.08 0 16.47-7.389 16.475-16.47a16.369 16.369 0 00-4.821-11.652 16.368 16.368 0 00-11.648-4.83c-9.088 0-16.478 7.388-16.482 16.469a16.426 16.426 0 002.52 8.765l.391.623-1.664 6.077 6.235-1.635zM.085 40l2.813-10.268a19.778 19.778 0 01-2.646-9.906C.256 8.9 9.148.01 20.074.01a19.698 19.698 0 0114.021 5.812 19.696 19.696 0 015.8 14.019c-.004 10.925-8.897 19.815-19.821 19.815h-.009a19.807 19.807 0 01-9.472-2.412L.085 40z" fill="#fff"/><path d="M.922 19.81c0 3.397.888 6.678 2.587 9.574L.768 39.305l10.153-2.664c2.78 1.544 5.945 2.317 9.149 2.317 10.539 0 19.148-8.57 19.148-19.11 0-5.134-2.008-9.92-5.598-13.55C29.99 2.708 25.204.701 20.07.701 9.53.7.922 9.27.922 19.81z" fill="url(#paint0_linear_68_872)"/><path fill-rule="evenodd" clip-rule="evenodd" d="M15.12 11.55c-.371-.826-.762-.842-1.115-.857-.288-.012-.619-.011-.949-.011-.33 0-.867.124-1.32.62-.455.495-1.734 1.693-1.734 4.13s1.775 4.792 2.022 5.122c.248.33 3.427 5.49 8.46 7.476 4.184 1.65 5.036 1.322 5.944 1.24.908-.083 2.93-1.199 3.343-2.355.413-1.157.413-2.148.289-2.355-.124-.206-.454-.33-.95-.578-.495-.248-2.93-1.446-3.384-1.611-.454-.165-.784-.248-1.114.248-.33.495-1.28 1.61-1.568 1.941-.29.331-.578.372-1.073.125-.496-.249-2.09-.771-3.983-2.458-1.473-1.313-2.466-2.934-2.755-3.43-.29-.495-.031-.764.217-1.01.222-.223.495-.579.743-.868.247-.29.33-.496.495-.826.165-.33.082-.62-.041-.867-.124-.248-1.087-2.698-1.527-3.677z" fill="#fff"/><defs><linearGradient id="paint0_linear_68_872" x1="19.991" y1="39.305" x2="19.991" y2=".701" gradientUnits="userSpaceOnUse"><stop stop-color="#20B038"/><stop offset="1" stop-color="#60D66A"/></linearGradient></defs></svg>