<svg width="31" height="28" fill="none" xmlns="http://www.w3.org/2000/svg"><path d="M10.229 11.546l-7.088 7.088a1.036 1.036 0 00-1.47 0L1.306 19a1.038 1.038 0 000 1.468l2.203 2.203a1.054 1.054 0 001.469 0l.367-.367a1.037 1.037 0 000-1.469l7.08-7.087M8.346 7.36l1.121 1.202h1.496l3.56 3.574v1.494l1.211 1.12a1.106 1.106 0 001.536 0l4.511-4.482a.998.998 0 000-1.446L20.684 7.75h-1.496l-3.852-3.824V2.43l-1.065-1.12a1.015 1.015 0 00-1.463 0L8.33 5.826a1.112 1.112 0 00.016 1.535zm7.594-2.844l-1.758.878m5.272 2.636l-1.757 1.758M12.424 8.03l-.878.88m4.394 2.636l-.88.879m.88 10.545v-1.521c0-.49.166-.962.468-1.329a1.844 1.844 0 011.172-.666h9.07c.449.065.858.304 1.152.672.293.368.45.839.44 1.323v1.52m-6.988.001h-6.043c-.858 0-1.908.31-1.908 1.068v2.447H30v-2.447c0-.759-1.01-1.068-1.86-1.068h-2.91" stroke="#00148B" stroke-width="2" stroke-miterlimit="10"/></svg>